<mxfile host="Electron" agent="Mozilla/5.0 (Windows NT 10.0; Win64; x64) AppleWebKit/537.36 (KHTML, like Gecko) draw.io/24.7.17 Chrome/128.0.6613.36 Electron/32.0.1 Safari/537.36" version="24.7.17">
  <diagram id="fRUhEyAmqn6JfHpWfGpk" name="Page-1">
    <mxGraphModel dx="1221" dy="765" grid="1" gridSize="10" guides="1" tooltips="1" connect="1" arrows="1" fold="1" page="1" pageScale="1" pageWidth="720" pageHeight="1380" math="0" shadow="0">
      <root>
        <mxCell id="0" />
        <mxCell id="1" parent="0" />
        <mxCell id="zO8-c5lgZE-9HUMoSTf0-251" value="" style="rounded=0;whiteSpace=wrap;html=1;labelBackgroundColor=none;fontSize=12;fillColor=#FFFFFF;verticalAlign=top;strokeColor=#000000;" parent="1" vertex="1">
          <mxGeometry x="360" y="80" width="160" height="230" as="geometry" />
        </mxCell>
        <mxCell id="_IIo85ep8_x6QM5v_EdP-208" value="" style="rounded=1;whiteSpace=wrap;html=1;fontSize=10;strokeColor=default;fillColor=#F6F6F6;" parent="1" vertex="1">
          <mxGeometry x="370" y="180" width="140" height="90" as="geometry" />
        </mxCell>
        <mxCell id="O-gDGUDRsaO5ftSflFKG-231" value="" style="rounded=0;whiteSpace=wrap;html=1;labelBackgroundColor=none;fontSize=14;fillColor=#FFFFFF;verticalAlign=top;strokeColor=#000000;" parent="1" vertex="1">
          <mxGeometry x="200" y="1000" width="160" height="190" as="geometry" />
        </mxCell>
        <mxCell id="O-gDGUDRsaO5ftSflFKG-230" value="" style="rounded=0;whiteSpace=wrap;html=1;labelBackgroundColor=none;fontSize=14;fillColor=#FFFFFF;verticalAlign=top;strokeColor=#000000;" parent="1" vertex="1">
          <mxGeometry x="520" y="1000" width="160" height="190" as="geometry" />
        </mxCell>
        <mxCell id="zO8-c5lgZE-9HUMoSTf0-159" value="v1.2+" style="rounded=0;whiteSpace=wrap;html=1;labelBackgroundColor=none;fontSize=14;fillColor=#d5e8d4;verticalAlign=middle;strokeColor=#000000;" parent="1" vertex="1">
          <mxGeometry x="360" y="60" width="160" height="20" as="geometry" />
        </mxCell>
        <mxCell id="_IIo85ep8_x6QM5v_EdP-139" style="edgeStyle=orthogonalEdgeStyle;orthogonalLoop=1;jettySize=auto;html=1;exitX=1;exitY=0.5;exitDx=0;exitDy=0;entryX=1;entryY=0.5;entryDx=0;entryDy=0;fontSize=14;" parent="1" source="zO8-c5lgZE-9HUMoSTf0-162" target="zO8-c5lgZE-9HUMoSTf0-167" edge="1">
          <mxGeometry relative="1" as="geometry">
            <Array as="points">
              <mxPoint x="500" y="250" />
            </Array>
          </mxGeometry>
        </mxCell>
        <mxCell id="zO8-c5lgZE-9HUMoSTf0-162" value="Path to folder with Bruker / Jcampdx Spectra" style="rounded=0;whiteSpace=wrap;html=1;verticalAlign=middle;align=center;fillColor=#fff2cc;strokeColor=#000000;fontSize=10;" parent="1" vertex="1">
          <mxGeometry x="380" y="90" width="120" height="30" as="geometry" />
        </mxCell>
        <mxCell id="_IIo85ep8_x6QM5v_EdP-141" style="edgeStyle=orthogonalEdgeStyle;orthogonalLoop=1;jettySize=auto;html=1;entryX=0.5;entryY=0;entryDx=0;entryDy=0;fontSize=14;" parent="1" target="zO8-c5lgZE-9HUMoSTf0-233" edge="1">
          <mxGeometry relative="1" as="geometry">
            <mxPoint x="440" y="260" as="sourcePoint" />
          </mxGeometry>
        </mxCell>
        <mxCell id="zO8-c5lgZE-9HUMoSTf0-167" value="read_spectra()" style="rounded=1;whiteSpace=wrap;html=1;fontSize=10;strokeColor=#000000;" parent="1" vertex="1">
          <mxGeometry x="380" y="240" width="110" height="20" as="geometry" />
        </mxCell>
        <mxCell id="zO8-c5lgZE-9HUMoSTf0-233" value="spectra" style="rounded=0;whiteSpace=wrap;html=1;labelBackgroundColor=none;fontSize=10;fillColor=#dae8fc;strokeColor=#000000;" parent="1" vertex="1">
          <mxGeometry x="370" y="290" width="140" height="20" as="geometry" />
        </mxCell>
        <mxCell id="_IIo85ep8_x6QM5v_EdP-133" style="edgeStyle=orthogonalEdgeStyle;orthogonalLoop=1;jettySize=auto;html=1;entryX=0.5;entryY=0;entryDx=0;entryDy=0;fontSize=14;" parent="1" source="zO8-c5lgZE-9HUMoSTf0-237" target="zO8-c5lgZE-9HUMoSTf0-217" edge="1">
          <mxGeometry relative="1" as="geometry" />
        </mxCell>
        <mxCell id="zO8-c5lgZE-9HUMoSTf0-237" value="spectrum" style="rounded=0;whiteSpace=wrap;html=1;labelBackgroundColor=none;fontSize=10;fillColor=#dae8fc;strokeColor=#000000;" parent="1" vertex="1">
          <mxGeometry x="380" y="140" width="100" height="20" as="geometry" />
        </mxCell>
        <mxCell id="zO8-c5lgZE-9HUMoSTf0-238" value="..." style="rounded=0;whiteSpace=wrap;html=1;labelBackgroundColor=none;fontSize=10;fillColor=#dae8fc;strokeColor=#000000;" parent="1" vertex="1">
          <mxGeometry x="460" y="140" width="20" height="20" as="geometry" />
        </mxCell>
        <mxCell id="zO8-c5lgZE-9HUMoSTf0-274" value="simulate_spectra()" style="rounded=1;whiteSpace=wrap;html=1;fontSize=10;strokeColor=#000000;" parent="1" vertex="1">
          <mxGeometry x="380" y="220" width="100" height="20" as="geometry" />
        </mxCell>
        <mxCell id="_IIo85ep8_x6QM5v_EdP-136" style="edgeStyle=orthogonalEdgeStyle;orthogonalLoop=1;jettySize=auto;html=1;exitX=1;exitY=0.5;exitDx=0;exitDy=0;entryX=1;entryY=0.5;entryDx=0;entryDy=0;fontSize=14;" parent="1" source="zO8-c5lgZE-9HUMoSTf0-303" target="zO8-c5lgZE-9HUMoSTf0-274" edge="1">
          <mxGeometry y="-10" relative="1" as="geometry">
            <Array as="points">
              <mxPoint x="490" y="230" />
            </Array>
            <mxPoint as="offset" />
          </mxGeometry>
        </mxCell>
        <mxCell id="zO8-c5lgZE-9HUMoSTf0-303" value="Simulation Parameters" style="rounded=0;whiteSpace=wrap;html=1;labelBackgroundColor=none;fontSize=10;fillColor=#dae8fc;strokeColor=#000000;" parent="1" vertex="1">
          <mxGeometry x="380" y="120" width="110" height="20" as="geometry" />
        </mxCell>
        <mxCell id="O-gDGUDRsaO5ftSflFKG-95" value="3A. Align Spectra" style="rounded=0;whiteSpace=wrap;html=1;labelBackgroundColor=none;fontSize=14;verticalAlign=middle;fontStyle=1" parent="1" vertex="1">
          <mxGeometry x="40" y="960" width="640" height="20" as="geometry" />
        </mxCell>
        <mxCell id="O-gDGUDRsaO5ftSflFKG-167" value="1A. Get spectra" style="rounded=0;whiteSpace=wrap;html=1;labelBackgroundColor=none;fontSize=14;verticalAlign=middle;fontStyle=1" parent="1" vertex="1">
          <mxGeometry x="40" y="40" width="640" height="20" as="geometry" />
        </mxCell>
        <mxCell id="O-gDGUDRsaO5ftSflFKG-210" style="edgeStyle=orthogonalEdgeStyle;rounded=0;orthogonalLoop=1;jettySize=auto;html=1;strokeColor=#000000;fontSize=10;exitX=0.5;exitY=1;exitDx=0;exitDy=0;entryX=0.5;entryY=0;entryDx=0;entryDy=0;" parent="1" source="O-gDGUDRsaO5ftSflFKG-218" target="O-gDGUDRsaO5ftSflFKG-212" edge="1">
          <mxGeometry relative="1" as="geometry">
            <mxPoint x="600" y="1170" as="targetPoint" />
            <mxPoint x="590.037037037037" y="1170" as="sourcePoint" />
            <Array as="points" />
          </mxGeometry>
        </mxCell>
        <mxCell id="O-gDGUDRsaO5ftSflFKG-212" value="align" style="rounded=0;whiteSpace=wrap;html=1;labelBackgroundColor=none;fontSize=10;fillColor=#dae8fc;strokeColor=#000000;" parent="1" vertex="1">
          <mxGeometry x="530" y="1170" width="140" height="20" as="geometry" />
        </mxCell>
        <mxCell id="O-gDGUDRsaO5ftSflFKG-213" value="v1.3+" style="rounded=0;whiteSpace=wrap;html=1;labelBackgroundColor=none;fontSize=14;fillColor=#d5e8d4;verticalAlign=middle;strokeColor=#000000;" parent="1" vertex="1">
          <mxGeometry x="520" y="980" width="160" height="20" as="geometry" />
        </mxCell>
        <mxCell id="O-gDGUDRsaO5ftSflFKG-218" value="align()" style="rounded=1;whiteSpace=wrap;html=1;fontSize=10;strokeColor=#000000;" parent="1" vertex="1">
          <mxGeometry x="530" y="1090" width="140" height="20" as="geometry" />
        </mxCell>
        <mxCell id="O-gDGUDRsaO5ftSflFKG-223" value="decon2" style="rounded=0;whiteSpace=wrap;html=1;labelBackgroundColor=none;fontSize=10;fillColor=#dae8fc;strokeColor=#000000;" parent="1" vertex="1">
          <mxGeometry x="540" y="1030" width="130" height="20" as="geometry" />
        </mxCell>
        <mxCell id="O-gDGUDRsaO5ftSflFKG-229" style="edgeStyle=orthogonalEdgeStyle;rounded=0;orthogonalLoop=1;jettySize=auto;html=1;strokeColor=#000000;fontSize=10;exitX=0.465;exitY=1.003;exitDx=0;exitDy=0;exitPerimeter=0;" parent="1" source="O-gDGUDRsaO5ftSflFKG-223" edge="1">
          <mxGeometry relative="1" as="geometry">
            <mxPoint x="600" y="1090" as="targetPoint" />
            <mxPoint x="600" y="1090" as="sourcePoint" />
            <Array as="points" />
          </mxGeometry>
        </mxCell>
        <mxCell id="O-gDGUDRsaO5ftSflFKG-247" value="" style="rounded=0;whiteSpace=wrap;html=1;labelBackgroundColor=none;fontSize=14;fillColor=#FFFFFF;verticalAlign=top;strokeColor=#000000;" parent="1" vertex="1">
          <mxGeometry x="40" y="790" width="160" height="130" as="geometry" />
        </mxCell>
        <mxCell id="O-gDGUDRsaO5ftSflFKG-249" value="2B. Visualize Deconvoluted Spectra" style="rounded=0;whiteSpace=wrap;html=1;labelBackgroundColor=none;fontSize=14;verticalAlign=middle;fontStyle=1" parent="1" vertex="1">
          <mxGeometry x="40" y="750" width="640" height="20" as="geometry" />
        </mxCell>
        <mxCell id="O-gDGUDRsaO5ftSflFKG-251" value="plot_triplets()" style="rounded=1;whiteSpace=wrap;html=1;fontSize=10;strokeColor=#000000;" parent="1" vertex="1">
          <mxGeometry x="50" y="860" width="140" height="20" as="geometry" />
        </mxCell>
        <mxCell id="O-gDGUDRsaO5ftSflFKG-257" value="plot_lorentz_curves_&lt;br style=&quot;font-size: 8px;&quot;&gt;save_as_png()" style="rounded=1;whiteSpace=wrap;html=1;fontSize=8;strokeColor=#000000;" parent="1" vertex="1">
          <mxGeometry x="50" y="880" width="140" height="20" as="geometry" />
        </mxCell>
        <mxCell id="O-gDGUDRsaO5ftSflFKG-258" value="plot_spectrum_superposition_&lt;br style=&quot;font-size: 8px;&quot;&gt;save_as_png()" style="rounded=1;whiteSpace=wrap;html=1;fontSize=8;strokeColor=#000000;" parent="1" vertex="1">
          <mxGeometry x="50" y="900" width="140" height="20" as="geometry" />
        </mxCell>
        <mxCell id="O-gDGUDRsaO5ftSflFKG-260" value="|" style="rounded=1;whiteSpace=wrap;html=1;fontSize=10;strokeColor=#000000;fillColor=#ffe6cc;" parent="1" vertex="1">
          <mxGeometry x="50" y="860" width="10" height="60" as="geometry" />
        </mxCell>
        <mxCell id="_IIo85ep8_x6QM5v_EdP-3" style="edgeStyle=orthogonalEdgeStyle;rounded=0;orthogonalLoop=1;jettySize=auto;html=1;entryX=0.5;entryY=0;entryDx=0;entryDy=0;exitX=0.5;exitY=1;exitDx=0;exitDy=0;" parent="1" source="O-gDGUDRsaO5ftSflFKG-302" target="O-gDGUDRsaO5ftSflFKG-251" edge="1">
          <mxGeometry relative="1" as="geometry">
            <mxPoint x="119.94117647058806" y="840" as="sourcePoint" />
          </mxGeometry>
        </mxCell>
        <mxCell id="O-gDGUDRsaO5ftSflFKG-302" value="decon0" style="rounded=0;whiteSpace=wrap;html=1;labelBackgroundColor=none;fontSize=10;fillColor=#dae8fc;strokeColor=#000000;" parent="1" vertex="1">
          <mxGeometry x="50" y="800" width="140" height="20" as="geometry" />
        </mxCell>
        <mxCell id="O-gDGUDRsaO5ftSflFKG-334" value="" style="rounded=0;whiteSpace=wrap;html=1;labelBackgroundColor=none;fontSize=14;fillColor=#FFFFFF;verticalAlign=top;strokeColor=#000000;" parent="1" vertex="1">
          <mxGeometry x="360" y="380" width="160" height="80" as="geometry" />
        </mxCell>
        <mxCell id="O-gDGUDRsaO5ftSflFKG-335" value="1B. Visualize Spectra" style="rounded=0;whiteSpace=wrap;html=1;labelBackgroundColor=none;fontSize=14;verticalAlign=middle;fontStyle=1" parent="1" vertex="1">
          <mxGeometry x="40" y="340" width="640" height="20" as="geometry" />
        </mxCell>
        <mxCell id="O-gDGUDRsaO5ftSflFKG-336" value="v1.2+" style="rounded=0;whiteSpace=wrap;html=1;labelBackgroundColor=none;fontSize=14;fillColor=#d5e8d4;verticalAlign=middle;strokeColor=#000000;" parent="1" vertex="1">
          <mxGeometry x="360" y="360" width="160" height="20" as="geometry" />
        </mxCell>
        <mxCell id="O-gDGUDRsaO5ftSflFKG-337" value="plot_spectra()" style="rounded=1;whiteSpace=wrap;html=1;fontSize=10;strokeColor=#000000;" parent="1" vertex="1">
          <mxGeometry x="375" y="440" width="130" height="20" as="geometry" />
        </mxCell>
        <mxCell id="O-gDGUDRsaO5ftSflFKG-338" style="edgeStyle=orthogonalEdgeStyle;rounded=0;orthogonalLoop=1;jettySize=auto;html=1;entryX=0.5;entryY=0;entryDx=0;entryDy=0;fontSize=16;exitX=0.5;exitY=1;exitDx=0;exitDy=0;" parent="1" source="O-gDGUDRsaO5ftSflFKG-339" target="O-gDGUDRsaO5ftSflFKG-337" edge="1">
          <mxGeometry relative="1" as="geometry">
            <mxPoint x="440" y="420" as="sourcePoint" />
            <mxPoint x="439.9200000000001" y="439.7800000000002" as="targetPoint" />
            <Array as="points" />
          </mxGeometry>
        </mxCell>
        <mxCell id="O-gDGUDRsaO5ftSflFKG-339" value="spectra" style="rounded=0;whiteSpace=wrap;html=1;labelBackgroundColor=none;fontSize=10;fillColor=#dae8fc;strokeColor=#000000;" parent="1" vertex="1">
          <mxGeometry x="375" y="395" width="130" height="20" as="geometry" />
        </mxCell>
        <mxCell id="O-gDGUDRsaO5ftSflFKG-298" value="|" style="rounded=0;whiteSpace=wrap;html=1;fontSize=10;strokeColor=#000000;fillColor=#ffe6cc;" parent="1" vertex="1">
          <mxGeometry x="50" y="800" width="10" height="20" as="geometry" />
        </mxCell>
        <mxCell id="_IIo85ep8_x6QM5v_EdP-39" style="edgeStyle=orthogonalEdgeStyle;rounded=0;orthogonalLoop=1;jettySize=auto;html=1;exitX=0.5;exitY=1;exitDx=0;exitDy=0;strokeColor=#000000;fontSize=14;" parent="1" edge="1">
          <mxGeometry relative="1" as="geometry">
            <mxPoint x="250" y="730" as="sourcePoint" />
            <mxPoint x="250" y="730" as="targetPoint" />
          </mxGeometry>
        </mxCell>
        <mxCell id="_IIo85ep8_x6QM5v_EdP-40" value="2A. Deconvolute spectra" style="rounded=0;whiteSpace=wrap;html=1;labelBackgroundColor=none;fontSize=14;verticalAlign=middle;fontStyle=1" parent="1" vertex="1">
          <mxGeometry x="40" y="500" width="640" height="20" as="geometry" />
        </mxCell>
        <mxCell id="_IIo85ep8_x6QM5v_EdP-41" value="" style="rounded=0;whiteSpace=wrap;html=1;labelBackgroundColor=none;fontSize=14;fillColor=#FFFFFF;verticalAlign=top;strokeColor=#000000;" parent="1" vertex="1">
          <mxGeometry x="520" y="540" width="160" height="170" as="geometry" />
        </mxCell>
        <mxCell id="_IIo85ep8_x6QM5v_EdP-42" value="deconvolute()" style="rounded=1;whiteSpace=wrap;html=1;fontSize=10;strokeColor=#000000;" parent="1" vertex="1">
          <mxGeometry x="530" y="620" width="140" height="20" as="geometry" />
        </mxCell>
        <mxCell id="_IIo85ep8_x6QM5v_EdP-43" value="" style="rounded=0;whiteSpace=wrap;html=1;labelBackgroundColor=none;fontSize=14;fillColor=#FFFFFF;verticalAlign=top;strokeColor=#000000;" parent="1" vertex="1">
          <mxGeometry x="360" y="540" width="160" height="170" as="geometry" />
        </mxCell>
        <mxCell id="_IIo85ep8_x6QM5v_EdP-44" style="edgeStyle=orthogonalEdgeStyle;rounded=0;orthogonalLoop=1;jettySize=auto;html=1;strokeColor=#000000;fontSize=10;entryX=0.5;entryY=0;entryDx=0;entryDy=0;exitX=0.5;exitY=1;exitDx=0;exitDy=0;" parent="1" source="_IIo85ep8_x6QM5v_EdP-45" target="_IIo85ep8_x6QM5v_EdP-46" edge="1">
          <mxGeometry relative="1" as="geometry">
            <mxPoint x="415" y="660" as="targetPoint" />
          </mxGeometry>
        </mxCell>
        <mxCell id="_IIo85ep8_x6QM5v_EdP-45" value="generate_lorentz_curves()" style="rounded=1;whiteSpace=wrap;html=1;fontSize=10;strokeColor=#000000;" parent="1" vertex="1">
          <mxGeometry x="370" y="620" width="140" height="20" as="geometry" />
        </mxCell>
        <mxCell id="_IIo85ep8_x6QM5v_EdP-46" value="decon1" style="rounded=0;whiteSpace=wrap;html=1;labelBackgroundColor=none;fontSize=10;fillColor=#dae8fc;strokeColor=#000000;" parent="1" vertex="1">
          <mxGeometry x="370" y="690" width="140" height="20" as="geometry" />
        </mxCell>
        <mxCell id="_IIo85ep8_x6QM5v_EdP-47" value="v1.3+" style="rounded=0;whiteSpace=wrap;html=1;labelBackgroundColor=none;fontSize=14;fillColor=#d5e8d4;verticalAlign=middle;strokeColor=#000000;" parent="1" vertex="1">
          <mxGeometry x="520" y="520" width="160" height="20" as="geometry" />
        </mxCell>
        <mxCell id="_IIo85ep8_x6QM5v_EdP-48" value="v1.2+" style="rounded=0;whiteSpace=wrap;html=1;labelBackgroundColor=none;fontSize=14;fillColor=#d5e8d4;verticalAlign=middle;strokeColor=#000000;" parent="1" vertex="1">
          <mxGeometry x="360" y="520" width="160" height="20" as="geometry" />
        </mxCell>
        <mxCell id="_IIo85ep8_x6QM5v_EdP-49" value="" style="rounded=0;whiteSpace=wrap;html=1;labelBackgroundColor=none;fontSize=14;fillColor=#FFFFFF;verticalAlign=top;strokeColor=#000000;" parent="1" vertex="1">
          <mxGeometry x="40" y="540" width="160" height="170" as="geometry" />
        </mxCell>
        <mxCell id="_IIo85ep8_x6QM5v_EdP-50" value="MetaboDecon1D()" style="rounded=1;whiteSpace=wrap;html=1;fontSize=10;strokeColor=#000000;" parent="1" vertex="1">
          <mxGeometry x="50" y="620" width="140" height="20" as="geometry" />
        </mxCell>
        <mxCell id="_IIo85ep8_x6QM5v_EdP-51" value="decon0" style="rounded=0;whiteSpace=wrap;html=1;labelBackgroundColor=none;fontSize=10;fillColor=#dae8fc;strokeColor=#000000;" parent="1" vertex="1">
          <mxGeometry x="50" y="690" width="140" height="20" as="geometry" />
        </mxCell>
        <mxCell id="_IIo85ep8_x6QM5v_EdP-53" style="edgeStyle=none;rounded=0;orthogonalLoop=1;jettySize=auto;html=1;entryX=0.5;entryY=0;entryDx=0;entryDy=0;fontSize=14;" parent="1" source="_IIo85ep8_x6QM5v_EdP-54" target="_IIo85ep8_x6QM5v_EdP-45" edge="1">
          <mxGeometry relative="1" as="geometry" />
        </mxCell>
        <mxCell id="_IIo85ep8_x6QM5v_EdP-54" value="spectra" style="rounded=0;whiteSpace=wrap;html=1;labelBackgroundColor=none;fontSize=10;fillColor=#dae8fc;strokeColor=#000000;" parent="1" vertex="1">
          <mxGeometry x="370" y="580" width="140" height="20" as="geometry" />
        </mxCell>
        <mxCell id="_IIo85ep8_x6QM5v_EdP-55" value="paramTexts" style="rounded=0;whiteSpace=wrap;html=1;labelBackgroundColor=none;fontSize=10;fillColor=#fff2cc;strokeColor=#000000;" parent="1" vertex="1">
          <mxGeometry x="50" y="670" width="140" height="20" as="geometry" />
        </mxCell>
        <mxCell id="_IIo85ep8_x6QM5v_EdP-56" style="edgeStyle=none;rounded=0;orthogonalLoop=1;jettySize=auto;html=1;entryX=0.5;entryY=0;entryDx=0;entryDy=0;fontSize=14;" parent="1" source="_IIo85ep8_x6QM5v_EdP-57" target="_IIo85ep8_x6QM5v_EdP-50" edge="1">
          <mxGeometry relative="1" as="geometry" />
        </mxCell>
        <mxCell id="_IIo85ep8_x6QM5v_EdP-57" value="Path to folder with Bruker / Jcampdx Spectra" style="rounded=0;whiteSpace=wrap;html=1;verticalAlign=middle;align=center;fillColor=#fff2cc;strokeColor=#000000;fontSize=10;" parent="1" vertex="1">
          <mxGeometry x="50" y="550" width="140" height="30" as="geometry" />
        </mxCell>
        <mxCell id="_IIo85ep8_x6QM5v_EdP-58" value="&amp;amp;" style="rounded=0;whiteSpace=wrap;html=1;labelBackgroundColor=none;fontSize=10;fillColor=#ffe6cc;strokeColor=#000000;" parent="1" vertex="1">
          <mxGeometry x="50" y="670" width="10" height="40" as="geometry" />
        </mxCell>
        <mxCell id="_IIo85ep8_x6QM5v_EdP-59" style="edgeStyle=orthogonalEdgeStyle;rounded=0;orthogonalLoop=1;jettySize=auto;html=1;strokeColor=#000000;fontSize=10;entryX=0.5;entryY=0;entryDx=0;entryDy=0;exitX=0.5;exitY=1;exitDx=0;exitDy=0;" parent="1" source="_IIo85ep8_x6QM5v_EdP-42" target="_IIo85ep8_x6QM5v_EdP-60" edge="1">
          <mxGeometry relative="1" as="geometry">
            <mxPoint x="575" y="660" as="targetPoint" />
            <mxPoint x="590" y="640" as="sourcePoint" />
          </mxGeometry>
        </mxCell>
        <mxCell id="_IIo85ep8_x6QM5v_EdP-60" value="decon2" style="rounded=0;whiteSpace=wrap;html=1;labelBackgroundColor=none;fontSize=10;fillColor=#dae8fc;strokeColor=#000000;" parent="1" vertex="1">
          <mxGeometry x="530" y="690" width="140" height="20" as="geometry" />
        </mxCell>
        <mxCell id="_IIo85ep8_x6QM5v_EdP-61" style="edgeStyle=orthogonalEdgeStyle;rounded=0;orthogonalLoop=1;jettySize=auto;html=1;fontSize=10;exitX=0.5;exitY=1;exitDx=0;exitDy=0;" parent="1" source="_IIo85ep8_x6QM5v_EdP-62" edge="1">
          <mxGeometry relative="1" as="geometry">
            <Array as="points" />
            <mxPoint x="600" y="570" as="sourcePoint" />
            <mxPoint x="600" y="620" as="targetPoint" />
          </mxGeometry>
        </mxCell>
        <mxCell id="_IIo85ep8_x6QM5v_EdP-62" value="spectra" style="rounded=0;whiteSpace=wrap;html=1;labelBackgroundColor=none;fontSize=10;fillColor=#dae8fc;strokeColor=#000000;" parent="1" vertex="1">
          <mxGeometry x="530" y="550" width="140" height="20" as="geometry" />
        </mxCell>
        <mxCell id="_IIo85ep8_x6QM5v_EdP-63" style="edgeStyle=orthogonalEdgeStyle;rounded=0;orthogonalLoop=1;jettySize=auto;html=1;strokeColor=#000000;fontSize=10;entryX=0.5;entryY=0;entryDx=0;entryDy=0;" parent="1" target="_IIo85ep8_x6QM5v_EdP-55" edge="1">
          <mxGeometry relative="1" as="geometry">
            <mxPoint x="119.96000000000004" y="660.06" as="targetPoint" />
            <mxPoint x="120.02564102564111" y="640" as="sourcePoint" />
          </mxGeometry>
        </mxCell>
        <mxCell id="_IIo85ep8_x6QM5v_EdP-65" value="" style="rounded=0;whiteSpace=wrap;html=1;labelBackgroundColor=none;fontSize=14;fillColor=#FFFFFF;verticalAlign=top;strokeColor=#000000;" parent="1" vertex="1">
          <mxGeometry x="360" y="790" width="160" height="130" as="geometry" />
        </mxCell>
        <mxCell id="_IIo85ep8_x6QM5v_EdP-68" value="v0.2 - v2.0" style="rounded=0;whiteSpace=wrap;html=1;labelBackgroundColor=none;fontSize=14;fillColor=#E6E6E6;verticalAlign=middle;strokeColor=#000000;" parent="1" vertex="1">
          <mxGeometry x="40" y="770" width="160" height="20" as="geometry" />
        </mxCell>
        <mxCell id="_IIo85ep8_x6QM5v_EdP-72" value="v1.2+" style="rounded=0;whiteSpace=wrap;html=1;labelBackgroundColor=none;fontSize=14;fillColor=#d5e8d4;verticalAlign=middle;strokeColor=#000000;" parent="1" vertex="1">
          <mxGeometry x="360" y="770" width="160" height="20" as="geometry" />
        </mxCell>
        <mxCell id="_IIo85ep8_x6QM5v_EdP-73" value="decon1" style="rounded=0;whiteSpace=wrap;html=1;labelBackgroundColor=none;fontSize=10;fillColor=#dae8fc;strokeColor=#000000;" parent="1" vertex="1">
          <mxGeometry x="370" y="820" width="140" height="20" as="geometry" />
        </mxCell>
        <mxCell id="_IIo85ep8_x6QM5v_EdP-74" value="decon0" style="rounded=0;whiteSpace=wrap;html=1;labelBackgroundColor=none;fontSize=10;fillColor=#dae8fc;strokeColor=#000000;" parent="1" vertex="1">
          <mxGeometry x="370" y="800" width="140" height="20" as="geometry" />
        </mxCell>
        <mxCell id="_IIo85ep8_x6QM5v_EdP-80" value="plot_spectra()" style="rounded=0;whiteSpace=wrap;html=1;fontSize=10;strokeColor=#000000;" parent="1" vertex="1">
          <mxGeometry x="370" y="900" width="140" height="20" as="geometry" />
        </mxCell>
        <mxCell id="_IIo85ep8_x6QM5v_EdP-81" style="edgeStyle=orthogonalEdgeStyle;rounded=0;orthogonalLoop=1;jettySize=auto;html=1;entryX=0.5;entryY=0;entryDx=0;entryDy=0;fontSize=16;exitX=0.5;exitY=1;exitDx=0;exitDy=0;" parent="1" source="_IIo85ep8_x6QM5v_EdP-73" target="_IIo85ep8_x6QM5v_EdP-80" edge="1">
          <mxGeometry relative="1" as="geometry">
            <mxPoint x="450" y="840" as="sourcePoint" />
            <mxPoint x="449.9200000000001" y="859.7799999999997" as="targetPoint" />
            <Array as="points" />
          </mxGeometry>
        </mxCell>
        <mxCell id="_IIo85ep8_x6QM5v_EdP-84" value="Path to folder with Bruker / Jcampdx Spectra" style="rounded=0;whiteSpace=wrap;html=1;verticalAlign=middle;align=center;fillColor=#fff2cc;strokeColor=#000000;fontSize=10;" parent="1" vertex="1">
          <mxGeometry x="370" y="550" width="140" height="30" as="geometry" />
        </mxCell>
        <mxCell id="_IIo85ep8_x6QM5v_EdP-85" value="|" style="rounded=0;whiteSpace=wrap;html=1;verticalAlign=middle;align=center;fontSize=10;fillColor=#ffe6cc;strokeColor=#000000;" parent="1" vertex="1">
          <mxGeometry x="370" y="550" width="10" height="50" as="geometry" />
        </mxCell>
        <mxCell id="_IIo85ep8_x6QM5v_EdP-87" value="|" style="rounded=0;whiteSpace=wrap;html=1;fontSize=10;strokeColor=#000000;fillColor=#ffe6cc;" parent="1" vertex="1">
          <mxGeometry x="370" y="800" width="10" height="40" as="geometry" />
        </mxCell>
        <mxCell id="_IIo85ep8_x6QM5v_EdP-115" value="" style="rounded=0;whiteSpace=wrap;html=1;labelBackgroundColor=none;fontSize=14;fillColor=#FFFFFF;verticalAlign=top;strokeColor=#000000;" parent="1" vertex="1">
          <mxGeometry x="520" y="790" width="160" height="130" as="geometry" />
        </mxCell>
        <mxCell id="_IIo85ep8_x6QM5v_EdP-116" value="v1.3+" style="rounded=0;whiteSpace=wrap;html=1;labelBackgroundColor=none;fontSize=14;fillColor=#d5e8d4;verticalAlign=middle;strokeColor=#000000;" parent="1" vertex="1">
          <mxGeometry x="520" y="770" width="160" height="20" as="geometry" />
        </mxCell>
        <mxCell id="_IIo85ep8_x6QM5v_EdP-117" value="decon1" style="rounded=0;whiteSpace=wrap;html=1;labelBackgroundColor=none;fontSize=10;fillColor=#dae8fc;strokeColor=#000000;" parent="1" vertex="1">
          <mxGeometry x="530" y="820" width="140" height="20" as="geometry" />
        </mxCell>
        <mxCell id="_IIo85ep8_x6QM5v_EdP-118" value="decon0" style="rounded=0;whiteSpace=wrap;html=1;labelBackgroundColor=none;fontSize=10;fillColor=#dae8fc;strokeColor=#000000;" parent="1" vertex="1">
          <mxGeometry x="530" y="800" width="140" height="20" as="geometry" />
        </mxCell>
        <mxCell id="_IIo85ep8_x6QM5v_EdP-119" value="plot_spectra()" style="rounded=0;whiteSpace=wrap;html=1;fontSize=10;strokeColor=#000000;" parent="1" vertex="1">
          <mxGeometry x="530" y="900" width="140" height="20" as="geometry" />
        </mxCell>
        <mxCell id="_IIo85ep8_x6QM5v_EdP-120" style="edgeStyle=orthogonalEdgeStyle;rounded=0;orthogonalLoop=1;jettySize=auto;html=1;fontSize=16;exitX=0.5;exitY=1;exitDx=0;exitDy=0;" parent="1" source="_IIo85ep8_x6QM5v_EdP-124" target="_IIo85ep8_x6QM5v_EdP-119" edge="1">
          <mxGeometry relative="1" as="geometry">
            <mxPoint x="610" y="840" as="sourcePoint" />
            <mxPoint x="609.9200000000003" y="859.7799999999997" as="targetPoint" />
            <Array as="points" />
          </mxGeometry>
        </mxCell>
        <mxCell id="_IIo85ep8_x6QM5v_EdP-124" value="decon2" style="rounded=0;whiteSpace=wrap;html=1;labelBackgroundColor=none;fontSize=10;fillColor=#dae8fc;strokeColor=#000000;" parent="1" vertex="1">
          <mxGeometry x="530" y="840" width="140" height="20" as="geometry" />
        </mxCell>
        <mxCell id="_IIo85ep8_x6QM5v_EdP-123" value="|" style="rounded=0;whiteSpace=wrap;html=1;fontSize=10;strokeColor=#000000;fillColor=#ffe6cc;" parent="1" vertex="1">
          <mxGeometry x="530" y="800" width="10" height="60" as="geometry" />
        </mxCell>
        <mxCell id="_IIo85ep8_x6QM5v_EdP-125" value="No exported functions for aligning deconvoluted spectra before version 1.0." style="rounded=0;whiteSpace=wrap;html=1;labelBackgroundColor=none;fontSize=14;fillColor=#FFFFFF;verticalAlign=middle;strokeColor=#000000;spacing=6;" parent="1" vertex="1">
          <mxGeometry x="40" y="1000" width="160" height="190" as="geometry" />
        </mxCell>
        <mxCell id="_IIo85ep8_x6QM5v_EdP-127" value="|" style="rounded=0;whiteSpace=wrap;html=1;verticalAlign=middle;align=center;fontSize=10;fillColor=#ffe6cc;strokeColor=#000000;" parent="1" vertex="1">
          <mxGeometry x="370" y="90" width="10" height="70" as="geometry" />
        </mxCell>
        <mxCell id="zO8-c5lgZE-9HUMoSTf0-217" value="make_spectra()" style="rounded=1;whiteSpace=wrap;html=1;fontSize=10;strokeColor=#000000;" parent="1" vertex="1">
          <mxGeometry x="380" y="200" width="100" height="20" as="geometry" />
        </mxCell>
        <mxCell id="_IIo85ep8_x6QM5v_EdP-138" style="edgeStyle=orthogonalEdgeStyle;orthogonalLoop=1;jettySize=auto;html=1;entryX=0.5;entryY=0;entryDx=0;entryDy=0;fontSize=14;exitX=0.5;exitY=1;exitDx=0;exitDy=0;" parent="1" source="zO8-c5lgZE-9HUMoSTf0-238" edge="1">
          <mxGeometry relative="1" as="geometry">
            <mxPoint x="470" y="170" as="sourcePoint" />
            <mxPoint x="470" y="200" as="targetPoint" />
          </mxGeometry>
        </mxCell>
        <mxCell id="_IIo85ep8_x6QM5v_EdP-142" value="No exported functions for reading spectra before version 1.2." style="rounded=0;whiteSpace=wrap;html=1;labelBackgroundColor=none;fontSize=14;fillColor=#FFFFFF;verticalAlign=middle;strokeColor=#000000;" parent="1" vertex="1">
          <mxGeometry x="40" y="80" width="320" height="230" as="geometry" />
        </mxCell>
        <mxCell id="_IIo85ep8_x6QM5v_EdP-144" value="No exported functions for visualizing spectra before version 1.2." style="rounded=0;whiteSpace=wrap;html=1;labelBackgroundColor=none;fontSize=14;fillColor=#FFFFFF;verticalAlign=middle;strokeColor=#000000;" parent="1" vertex="1">
          <mxGeometry x="40" y="380" width="320" height="80" as="geometry" />
        </mxCell>
        <mxCell id="_IIo85ep8_x6QM5v_EdP-52" value="v0.2 - v2.0" style="rounded=0;whiteSpace=wrap;html=1;labelBackgroundColor=none;fontSize=14;fillColor=#E6E6E6;verticalAlign=middle;strokeColor=#000000;" parent="1" vertex="1">
          <mxGeometry x="40" y="520" width="160" height="20" as="geometry" />
        </mxCell>
        <mxCell id="_IIo85ep8_x6QM5v_EdP-147" value="No exported functions for visualizing&amp;nbsp; aligned spectra before version 1.3 (expect setting `show=TRUE` in `gen_feat_mat()`)." style="rounded=0;whiteSpace=wrap;html=1;labelBackgroundColor=none;fontSize=14;fillColor=#FFFFFF;verticalAlign=middle;strokeColor=#000000;" parent="1" vertex="1">
          <mxGeometry x="40" y="1270" width="480" height="70" as="geometry" />
        </mxCell>
        <mxCell id="_IIo85ep8_x6QM5v_EdP-148" value="3B. Visualize Aligned Spectra" style="rounded=0;whiteSpace=wrap;html=1;labelBackgroundColor=none;fontSize=14;verticalAlign=middle;fontStyle=1" parent="1" vertex="1">
          <mxGeometry x="40" y="1230" width="640" height="20" as="geometry" />
        </mxCell>
        <mxCell id="_IIo85ep8_x6QM5v_EdP-159" value="v1.2+" style="rounded=0;whiteSpace=wrap;html=1;labelBackgroundColor=none;fontSize=14;fillColor=#d5e8d4;verticalAlign=middle;strokeColor=#000000;" parent="1" vertex="1">
          <mxGeometry x="360" y="1250" width="160" height="20" as="geometry" />
        </mxCell>
        <mxCell id="CXX_WwQIXvSu7mdd0n5U-1" value="v1.2+" style="rounded=0;whiteSpace=wrap;html=1;labelBackgroundColor=none;fontSize=14;fillColor=#d5e8d4;verticalAlign=middle;strokeColor=#000000;" parent="1" vertex="1">
          <mxGeometry x="360" y="980" width="160" height="20" as="geometry" />
        </mxCell>
        <mxCell id="CXX_WwQIXvSu7mdd0n5U-2" value="v1.3+" style="rounded=0;whiteSpace=wrap;html=1;labelBackgroundColor=none;fontSize=14;fillColor=#d5e8d4;verticalAlign=middle;strokeColor=#000000;" parent="1" vertex="1">
          <mxGeometry x="520" y="360" width="160" height="20" as="geometry" />
        </mxCell>
        <mxCell id="CXX_WwQIXvSu7mdd0n5U-3" value="v1.3+" style="rounded=0;whiteSpace=wrap;html=1;labelBackgroundColor=none;fontSize=14;fillColor=#d5e8d4;verticalAlign=middle;strokeColor=#000000;" parent="1" vertex="1">
          <mxGeometry x="520" y="60" width="160" height="20" as="geometry" />
        </mxCell>
        <mxCell id="CXX_WwQIXvSu7mdd0n5U-4" value="" style="rounded=0;whiteSpace=wrap;html=1;labelBackgroundColor=none;fontSize=14;fillColor=#FFFFFF;verticalAlign=top;strokeColor=#000000;" parent="1" vertex="1">
          <mxGeometry x="520" y="80" width="160" height="230" as="geometry" />
        </mxCell>
        <mxCell id="CXX_WwQIXvSu7mdd0n5U-5" value="" style="rounded=0;whiteSpace=wrap;html=1;labelBackgroundColor=none;fontSize=14;fillColor=#FFFFFF;verticalAlign=top;strokeColor=#000000;" parent="1" vertex="1">
          <mxGeometry x="520" y="380" width="160" height="80" as="geometry" />
        </mxCell>
        <mxCell id="CXX_WwQIXvSu7mdd0n5U-6" value="" style="rounded=0;whiteSpace=wrap;html=1;labelBackgroundColor=none;fontSize=14;fillColor=#FFFFFF;verticalAlign=top;strokeColor=#000000;" parent="1" vertex="1">
          <mxGeometry x="200" y="540" width="160" height="170" as="geometry" />
        </mxCell>
        <mxCell id="CXX_WwQIXvSu7mdd0n5U-7" value="" style="rounded=0;whiteSpace=wrap;html=1;labelBackgroundColor=none;fontSize=14;fillColor=#FFFFFF;verticalAlign=top;strokeColor=#000000;" parent="1" vertex="1">
          <mxGeometry x="200" y="790" width="160" height="130" as="geometry" />
        </mxCell>
        <mxCell id="CXX_WwQIXvSu7mdd0n5U-10" value="" style="rounded=0;whiteSpace=wrap;html=1;labelBackgroundColor=none;fontSize=14;fillColor=#FFFFFF;verticalAlign=top;strokeColor=#000000;" parent="1" vertex="1">
          <mxGeometry x="360" y="1000" width="160" height="190" as="geometry" />
        </mxCell>
        <mxCell id="CXX_WwQIXvSu7mdd0n5U-11" value="" style="rounded=0;whiteSpace=wrap;html=1;labelBackgroundColor=none;fontSize=14;fillColor=#FFFFFF;verticalAlign=top;strokeColor=#000000;" parent="1" vertex="1">
          <mxGeometry x="520" y="1270" width="160" height="70" as="geometry" />
        </mxCell>
        <mxCell id="CXX_WwQIXvSu7mdd0n5U-12" value="v1.3+" style="rounded=0;whiteSpace=wrap;html=1;labelBackgroundColor=none;fontSize=14;fillColor=#d5e8d4;verticalAlign=middle;strokeColor=#000000;" parent="1" vertex="1">
          <mxGeometry x="520" y="1250" width="160" height="20" as="geometry" />
        </mxCell>
        <mxCell id="CXX_WwQIXvSu7mdd0n5U-14" value="v1.0 - v2.0" style="rounded=0;whiteSpace=wrap;html=1;labelBackgroundColor=none;fontSize=14;fillColor=#E6E6E6;verticalAlign=middle;strokeColor=#000000;" parent="1" vertex="1">
          <mxGeometry x="200" y="770" width="160" height="20" as="geometry" />
        </mxCell>
        <mxCell id="CXX_WwQIXvSu7mdd0n5U-15" value="v1.0 - v2.0" style="rounded=0;whiteSpace=wrap;html=1;labelBackgroundColor=none;fontSize=14;fillColor=#E6E6E6;verticalAlign=middle;strokeColor=#000000;" parent="1" vertex="1">
          <mxGeometry x="200" y="520" width="160" height="20" as="geometry" />
        </mxCell>
        <mxCell id="CXX_WwQIXvSu7mdd0n5U-16" value="v0.2 - v2.0" style="rounded=0;whiteSpace=wrap;html=1;labelBackgroundColor=none;fontSize=14;fillColor=#E6E6E6;verticalAlign=middle;strokeColor=#000000;" parent="1" vertex="1">
          <mxGeometry x="40" y="60" width="160" height="20" as="geometry" />
        </mxCell>
        <mxCell id="CXX_WwQIXvSu7mdd0n5U-17" value="v1.0 - v2.0" style="rounded=0;whiteSpace=wrap;html=1;labelBackgroundColor=none;fontSize=14;fillColor=#E6E6E6;verticalAlign=middle;strokeColor=#000000;" parent="1" vertex="1">
          <mxGeometry x="200" y="60" width="160" height="20" as="geometry" />
        </mxCell>
        <mxCell id="CXX_WwQIXvSu7mdd0n5U-18" value="v0.2 - v2.0" style="rounded=0;whiteSpace=wrap;html=1;labelBackgroundColor=none;fontSize=14;fillColor=#E6E6E6;verticalAlign=middle;strokeColor=#000000;" parent="1" vertex="1">
          <mxGeometry x="40" y="360" width="160" height="20" as="geometry" />
        </mxCell>
        <mxCell id="CXX_WwQIXvSu7mdd0n5U-19" value="v1.0 - v2.0" style="rounded=0;whiteSpace=wrap;html=1;labelBackgroundColor=none;fontSize=14;fillColor=#E6E6E6;verticalAlign=middle;strokeColor=#000000;" parent="1" vertex="1">
          <mxGeometry x="200" y="360" width="160" height="20" as="geometry" />
        </mxCell>
        <mxCell id="CXX_WwQIXvSu7mdd0n5U-20" value="Path to folder with Bruker / Jcampdx Spectra" style="rounded=0;whiteSpace=wrap;html=1;verticalAlign=middle;align=center;fillColor=#fff2cc;strokeColor=#000000;fontSize=10;" parent="1" vertex="1">
          <mxGeometry x="50" y="1010" width="140" height="30" as="geometry" />
        </mxCell>
        <mxCell id="CXX_WwQIXvSu7mdd0n5U-21" value="v0.2 - v2.0" style="rounded=0;whiteSpace=wrap;html=1;labelBackgroundColor=none;fontSize=14;fillColor=#E6E6E6;verticalAlign=middle;strokeColor=#000000;" parent="1" vertex="1">
          <mxGeometry x="40" y="980" width="160" height="20" as="geometry" />
        </mxCell>
        <mxCell id="CXX_WwQIXvSu7mdd0n5U-22" value="v1.0 - v2.0" style="rounded=0;whiteSpace=wrap;html=1;labelBackgroundColor=none;fontSize=14;fillColor=#E6E6E6;verticalAlign=middle;strokeColor=#000000;" parent="1" vertex="1">
          <mxGeometry x="200" y="980" width="160" height="20" as="geometry" />
        </mxCell>
        <mxCell id="CXX_WwQIXvSu7mdd0n5U-26" value="v0.2 - v2.0" style="rounded=0;whiteSpace=wrap;html=1;labelBackgroundColor=none;fontSize=14;fillColor=#E6E6E6;verticalAlign=middle;strokeColor=#000000;" parent="1" vertex="1">
          <mxGeometry x="40" y="1250" width="160" height="20" as="geometry" />
        </mxCell>
        <mxCell id="CXX_WwQIXvSu7mdd0n5U-27" value="v1.0 - v2.0" style="rounded=0;whiteSpace=wrap;html=1;labelBackgroundColor=none;fontSize=14;fillColor=#E6E6E6;verticalAlign=middle;strokeColor=#000000;" parent="1" vertex="1">
          <mxGeometry x="200" y="1250" width="160" height="20" as="geometry" />
        </mxCell>
        <mxCell id="CXX_WwQIXvSu7mdd0n5U-34" value="decon0" style="rounded=0;whiteSpace=wrap;html=1;labelBackgroundColor=none;fontSize=10;fillColor=#dae8fc;strokeColor=#000000;" parent="1" vertex="1">
          <mxGeometry x="230" y="1010" width="120" height="20" as="geometry" />
        </mxCell>
        <mxCell id="CXX_WwQIXvSu7mdd0n5U-35" value="paramTexts" style="rounded=0;whiteSpace=wrap;html=1;labelBackgroundColor=none;fontSize=10;fillColor=#fff2cc;strokeColor=#000000;" parent="1" vertex="1">
          <mxGeometry x="230" y="1030" width="120" height="20" as="geometry" />
        </mxCell>
        <mxCell id="CXX_WwQIXvSu7mdd0n5U-36" value="&amp;amp;" style="rounded=0;whiteSpace=wrap;html=1;labelBackgroundColor=none;fontSize=10;fillColor=#ffe6cc;strokeColor=#000000;" parent="1" vertex="1">
          <mxGeometry x="220" y="1010" width="10" height="40" as="geometry" />
        </mxCell>
        <mxCell id="CXX_WwQIXvSu7mdd0n5U-37" value="decon1" style="rounded=0;whiteSpace=wrap;html=1;labelBackgroundColor=none;fontSize=10;fillColor=#dae8fc;strokeColor=#000000;" parent="1" vertex="1">
          <mxGeometry x="210" y="1050" width="140" height="20" as="geometry" />
        </mxCell>
        <mxCell id="CXX_WwQIXvSu7mdd0n5U-38" value="|" style="rounded=0;whiteSpace=wrap;html=1;labelBackgroundColor=none;fontSize=10;fillColor=#ffe6cc;strokeColor=#000000;" parent="1" vertex="1">
          <mxGeometry x="210" y="1010" width="10" height="60" as="geometry" />
        </mxCell>
        <mxCell id="CXX_WwQIXvSu7mdd0n5U-39" style="edgeStyle=orthogonalEdgeStyle;rounded=0;orthogonalLoop=1;jettySize=auto;html=1;strokeColor=#000000;fontSize=10;entryX=0.536;entryY=-0.017;entryDx=0;entryDy=0;exitX=0.5;exitY=1;exitDx=0;exitDy=0;entryPerimeter=0;" parent="1" source="CXX_WwQIXvSu7mdd0n5U-44" target="CXX_WwQIXvSu7mdd0n5U-41" edge="1">
          <mxGeometry relative="1" as="geometry">
            <mxPoint x="270" y="1170" as="targetPoint" />
            <mxPoint x="270.03703703703695" y="1160" as="sourcePoint" />
            <Array as="points">
              <mxPoint x="285" y="1160" />
              <mxPoint x="285" y="1160" />
            </Array>
          </mxGeometry>
        </mxCell>
        <mxCell id="CXX_WwQIXvSu7mdd0n5U-40" value="gen_feat_mat()" style="rounded=1;whiteSpace=wrap;html=1;fontSize=10;strokeColor=#000000;" parent="1" vertex="1">
          <mxGeometry x="220" y="1090" width="130" height="20" as="geometry" />
        </mxCell>
        <mxCell id="CXX_WwQIXvSu7mdd0n5U-41" value="combinedPeaks" style="rounded=0;whiteSpace=wrap;html=1;labelBackgroundColor=none;fontSize=10;fillColor=#dae8fc;strokeColor=#000000;" parent="1" vertex="1">
          <mxGeometry x="210" y="1170" width="140" height="20" as="geometry" />
        </mxCell>
        <mxCell id="CXX_WwQIXvSu7mdd0n5U-42" style="edgeStyle=orthogonalEdgeStyle;rounded=0;orthogonalLoop=1;jettySize=auto;html=1;strokeColor=#000000;fontSize=10;exitX=0.531;exitY=1.054;exitDx=0;exitDy=0;entryX=0.5;entryY=0;entryDx=0;entryDy=0;exitPerimeter=0;" parent="1" source="CXX_WwQIXvSu7mdd0n5U-37" target="CXX_WwQIXvSu7mdd0n5U-40" edge="1">
          <mxGeometry relative="1" as="geometry">
            <mxPoint x="285" y="1110" as="targetPoint" />
            <mxPoint x="285" y="1050" as="sourcePoint" />
          </mxGeometry>
        </mxCell>
        <mxCell id="CXX_WwQIXvSu7mdd0n5U-43" value="speaq_align()" style="rounded=1;whiteSpace=wrap;html=1;fontSize=10;strokeColor=#000000;" parent="1" vertex="1">
          <mxGeometry x="220" y="1110" width="130" height="20" as="geometry" />
        </mxCell>
        <mxCell id="CXX_WwQIXvSu7mdd0n5U-44" value="combine_peaks()" style="rounded=1;whiteSpace=wrap;html=1;fontSize=10;strokeColor=#000000;" parent="1" vertex="1">
          <mxGeometry x="220" y="1130" width="130" height="20" as="geometry" />
        </mxCell>
        <mxCell id="CXX_WwQIXvSu7mdd0n5U-45" value="&amp;gt;" style="rounded=0;whiteSpace=wrap;html=1;fontSize=10;strokeColor=#000000;fillColor=#ffe6cc;" parent="1" vertex="1">
          <mxGeometry x="210" y="1090" width="10" height="60" as="geometry" />
        </mxCell>
        <mxCell id="CXX_WwQIXvSu7mdd0n5U-46" value="decon1" style="rounded=0;whiteSpace=wrap;html=1;labelBackgroundColor=none;fontSize=10;fillColor=#dae8fc;strokeColor=#000000;" parent="1" vertex="1">
          <mxGeometry x="540" y="1010" width="130" height="20" as="geometry" />
        </mxCell>
        <mxCell id="CXX_WwQIXvSu7mdd0n5U-47" value="|" style="rounded=0;whiteSpace=wrap;html=1;labelBackgroundColor=none;fontSize=10;fillColor=#ffe6cc;strokeColor=#000000;" parent="1" vertex="1">
          <mxGeometry x="530" y="1010" width="10" height="40" as="geometry" />
        </mxCell>
        <mxCell id="_IIo85ep8_x6QM5v_EdP-161" value="align" style="rounded=0;whiteSpace=wrap;html=1;labelBackgroundColor=none;fontSize=10;fillColor=#dae8fc;strokeColor=#000000;" parent="1" vertex="1">
          <mxGeometry x="530" y="1280" width="140" height="20" as="geometry" />
        </mxCell>
        <mxCell id="_IIo85ep8_x6QM5v_EdP-162" value="plot_spectra()" style="rounded=0;whiteSpace=wrap;html=1;fontSize=10;strokeColor=#000000;" parent="1" vertex="1">
          <mxGeometry x="530" y="1320" width="140" height="20" as="geometry" />
        </mxCell>
        <mxCell id="_IIo85ep8_x6QM5v_EdP-163" style="edgeStyle=orthogonalEdgeStyle;rounded=0;orthogonalLoop=1;jettySize=auto;html=1;entryX=0.5;entryY=0;entryDx=0;entryDy=0;fontSize=16;exitX=0.5;exitY=1;exitDx=0;exitDy=0;" parent="1" source="_IIo85ep8_x6QM5v_EdP-161" target="_IIo85ep8_x6QM5v_EdP-162" edge="1">
          <mxGeometry relative="1" as="geometry">
            <mxPoint x="600" y="1320" as="sourcePoint" />
            <mxPoint x="609.9200000000001" y="1339.7799999999997" as="targetPoint" />
            <Array as="points" />
          </mxGeometry>
        </mxCell>
      </root>
    </mxGraphModel>
  </diagram>
</mxfile>
